<?xml version="1.0" encoding="UTF-8"?><svg id="Layer_1" xmlns="http://www.w3.org/2000/svg" viewBox="0 0 555.64 555.64"><defs><style>.cls-1{fill:#fd2155;}.cls-2{fill:#4bf7bd;}</style></defs><path class="cls-2" d="M277.82,531.06c-85.02,0-160.39-42.11-206.35-106.58-3.58-5.02-6.97-10.17-10.19-15.46-23.29-38.28-36.7-83.21-36.7-131.21,0-24.56,3.51-48.31,10.06-70.78,1.1-3.76,2.27-7.49,3.54-11.17H191.32l-119.64,217.44h210.48v-53.57h-42.61l-77.37-.18,117.32-217.01H35.02c-9.48,16.94-17.1,34.78-22.79,53.31-1.14,3.7-2.2,7.42-3.17,11.17C3.08,229.86,0,253.61,0,277.82c0,74.21,28.9,143.98,81.37,196.46,52.47,52.47,122.24,81.36,196.45,81.36,48.75,0,95.57-12.47,136.84-35.91v-11.71l.02-.27c0-2.24,0-10.58,0-16.92-39.49,25.45-86.48,40.23-136.85,40.23Z"/><path class="cls-1" d="M474.27,81.37C421.8,28.9,352.03,0,277.82,0S133.85,28.9,81.37,81.37c-15.31,15.31-28.6,32.08-39.75,50.02h29.71C117.25,66.79,192.7,24.58,277.82,24.58s160.54,42.19,206.46,106.77c.45,.61,.88,1.24,1.32,1.86,1.56,2.23,3.08,4.48,4.57,6.76,.63,.97,1.26,1.94,1.86,2.91,24.72,39.09,39.03,85.38,39.03,134.94s-14.35,95.99-39.14,135.11c-.61,.97-1.23,1.94-1.86,2.9-2.96,4.54-6.07,8.99-9.31,13.33v-11.13l.11-275.52h-5.94c-22.32,.46-44.29,3.19-65.74,9.54-42.98,12.73-75.77,38.01-96.02,78.53-13.43,26.87-18.9,55.71-19.55,85.4-.6,27.88-.38,97.28-.38,97.28h54.84v-48.33h77.81s-.05,61.46-.04,108.23v39.87c17.34-10.96,33.57-23.92,48.43-38.78,2.21-2.21,4.37-4.44,6.48-6.7,3.2-3.42,6.3-6.9,9.31-10.45,.62-.74,1.25-1.48,1.86-2.23,41.26-49.71,63.72-111.67,63.72-177.08,0-74.2-28.9-143.98-81.37-196.45Zm-48.4,230.68h-77.03v-2.08c0-.27,0-.59,.02-.95,1.78-24.82,7.34-48.39,22.52-68.79,12.79-17.19,30.17-27.52,50.27-33.77h.02l2.09-.56,2.12-.57v106.71Z"/></svg>